<?xml version="1.0" encoding="UTF-8"?>
<svg version="1.1" xmlns="http://www.w3.org/2000/svg" width="58" height="58">
<path d="M0 0 C2.375 1.375 2.375 1.375 4 3 C4 3.66 4 4.32 4 5 C4.515625 4.835 5.03125 4.67 5.5625 4.5 C9.60315668 3.67114735 13.11588395 2.98636878 16.90234375 5.0234375 C21.86605393 8.82230237 24.04935403 12.87172863 25 19 C25.84527642 29.3335042 25.87032753 38.14244392 18.9765625 46.43359375 C13.67678687 52.08608483 9.02587184 55.55268091 1.09765625 56.43359375 C-0.24718494 56.4574472 -1.59260766 56.45826992 -2.9375 56.4375 C-3.64334229 56.42775146 -4.34918457 56.41800293 -5.07641602 56.40795898 C-14.66274379 56.08091299 -19.63706126 52.206201 -26.078125 45.33203125 C-32.38861668 37.6747883 -31.68049116 28.45978554 -31 19 C-30.05938155 12.87326899 -27.86138319 8.81872773 -22.90234375 5.0234375 C-19.11588395 2.98636878 -15.60315668 3.67114735 -11.5625 4.5 C-11.046875 4.665 -10.53125 4.83 -10 5 C-9.71125 4.360625 -9.4225 3.72125 -9.125 3.0625 C-7.01861937 -0.79919782 -4.0599299 -0.32479439 0 0 Z M-6 4 C-6 4.33 -6 4.66 -6 5 C-4.02 5 -2.04 5 0 5 C0 4.67 0 4.34 0 4 C-1.98 4 -3.96 4 -6 4 Z M-22 13 C-24.03993514 17.92984325 -25.40652968 21.57960425 -25 27 C-24.67 27 -24.34 27 -24 27 C-23.46877637 25.23225581 -22.95035927 23.46065917 -22.4375 21.6875 C-22.14746094 20.70136719 -21.85742188 19.71523438 -21.55859375 18.69921875 C-20.74791709 15.91971661 -20.74791709 15.91971661 -22 13 Z M15 13 C15.13277344 13.59167969 15.26554687 14.18335938 15.40234375 14.79296875 C16.31005178 18.85446525 17.2091113 22.91374171 18 27 C18.33 27 18.66 27 19 27 C18.88512252 25.41590006 18.75765492 23.83271037 18.625 22.25 C18.55539063 21.36828125 18.48578125 20.4865625 18.4140625 19.578125 C18.00149945 17.00933618 17.28839043 15.24158985 16 13 C15.67 13 15.34 13 15 13 Z " fill="#ACBCCE" transform="translate(32,1)"/>
<path d="M0 0 C1.093125 0.0825 2.18625 0.165 3.3125 0.25 C3.3125 0.91 3.3125 1.57 3.3125 2.25 C4.56546875 2.22679687 5.8184375 2.20359375 7.109375 2.1796875 C8.7604107 2.16092573 10.41145285 2.14272597 12.0625 2.125 C12.8875 2.10824219 13.7125 2.09148438 14.5625 2.07421875 C15.36171875 2.06777344 16.1609375 2.06132813 16.984375 2.0546875 C17.7175293 2.04421387 18.45068359 2.03374023 19.20605469 2.02294922 C21.61146076 2.28222456 23.22501494 3.05774075 25.3125 4.25 C25.3125 4.91 25.3125 5.57 25.3125 6.25 C25.89 6.435625 26.4675 6.62125 27.0625 6.8125 C30.45712336 8.98128715 31.51747313 11.65994626 33.3125 15.25 C33.3125 15.91 33.3125 16.57 33.3125 17.25 C30.5625 17.5 30.5625 17.5 27.3125 17.25 C25.125 15.25 25.125 15.25 23.3125 13.25 C22.3225 13.25 21.3325 13.25 20.3125 13.25 C21.240625 13.78625 22.16875 14.3225 23.125 14.875 C26.68717318 17.52916825 27.86968182 19.08185858 29.3125 23.25 C30.07805297 29.18303552 29.21705149 32.62772242 25.8125 37.55078125 C23.62917724 40.02407657 21.40252074 41.17521018 18.3125 42.25 C17.3225 42.25 16.3325 42.25 15.3125 42.25 C15 38.9375 15 38.9375 15.3125 35.25 C17.75 33.4375 17.75 33.4375 20.3125 32.25 C21.73291821 29.40916359 21.62702272 27.39522722 21.3125 24.25 C19.4454009 21.94724444 17.95602259 20.57176129 15.3125 19.25 C15.3125 16.61 15.3125 13.97 15.3125 11.25 C14.3225 11.745 14.3225 11.745 13.3125 12.25 C13.415625 13.343125 13.51875 14.43625 13.625 15.5625 C13.521875 16.779375 13.41875 17.99625 13.3125 19.25 C10.875 21.0625 10.875 21.0625 8.3125 22.25 C6.89208179 25.09083641 6.99797728 27.10477278 7.3125 30.25 C9.1795991 32.55275556 10.66897741 33.92823871 13.3125 35.25 C13.3125 37.56 13.3125 39.87 13.3125 42.25 C8.76865603 41.71543012 5.86640316 40.10857428 2.3125 37.25 C-0.29095319 33.43160199 -1.28829089 30.00060268 -1.109375 25.33984375 C-0.11372465 20.40768695 2.88430401 16.48519653 6.625 13.25 C7.181875 12.92 7.73875 12.59 8.3125 12.25 C4.08165097 13.93807908 4.08165097 13.93807908 1.3125 17.25 C-0.6675 17.25 -2.6475 17.25 -4.6875 17.25 C-4.66429687 16.56292969 -4.64109375 15.87585937 -4.6171875 15.16796875 C-4.59914063 14.26691406 -4.58109375 13.36585937 -4.5625 12.4375 C-4.53929687 11.54417969 -4.51609375 10.65085937 -4.4921875 9.73046875 C-4.50464173 6.99597286 -4.50464173 6.99597286 -6.6875 4.25 C-4.79150483 0.68106792 -4.16790733 0.28256999 0 0 Z " fill="#EFF2F5" transform="translate(14.6875,4.75)"/>
<path d="M0 0 C2.375 1.375 2.375 1.375 4 3 C4 3.66 4 4.32 4 5 C4.515625 4.835 5.03125 4.67 5.5625 4.5 C9.60315668 3.67114735 13.11588395 2.98636878 16.90234375 5.0234375 C21.86605393 8.82230237 24.04935403 12.87172863 25 19 C26.46899401 36.9584518 26.46899401 36.9584518 21 44 C18.25 45.5625 18.25 45.5625 16 46 C15.67 45.34 15.34 44.68 15 44 C14.67 44.99 14.34 45.98 14 47 C6.78203246 51.70190042 -1.68580086 51.95750754 -10 51 C-13.56462342 50.07383042 -16.90040476 49.01912631 -20 47 C-20.495 45.515 -20.495 45.515 -21 44 C-21.66 44.66 -22.32 45.32 -23 46 C-23.33 43.03 -23.66 40.06 -24 37 C-21.75 36.625 -21.75 36.625 -19 37 C-18.401875 37.9075 -17.80375 38.815 -17.1875 39.75 C-14.39928984 43.89248367 -11.69607085 45.47463392 -7 47 C-1.79099358 47.98930742 2.63192631 46.9636475 7.234375 44.390625 C10.96928043 41.44897382 12.62718856 37.55232445 13.3046875 32.9140625 C13.45319085 28.60746535 12.58888204 24.97220511 11 21 C12.65 21 14.3 21 16 21 C13.96626644 16.39733984 11.5865196 13.48958664 8 10 C8 9.34 8 8.68 8 8 C3.37715491 6.43888216 -1.52549578 6.98658528 -6.33203125 7.12695312 C-8.22159482 7.15664128 -10.1121184 7.0850584 -12 7 C-12.66 6.34 -13.32 5.68 -14 5 C-12.68 5 -11.36 5 -10 5 C-9.71125 4.360625 -9.4225 3.72125 -9.125 3.0625 C-7.01861937 -0.79919782 -4.0599299 -0.32479439 0 0 Z M-6 4 C-6 4.33 -6 4.66 -6 5 C-4.02 5 -2.04 5 0 5 C0 4.67 0 4.34 0 4 C-1.98 4 -3.96 4 -6 4 Z M15 13 C15.13277344 13.59167969 15.26554687 14.18335938 15.40234375 14.79296875 C16.31005178 18.85446525 17.2091113 22.91374171 18 27 C18.33 27 18.66 27 19 27 C18.88512252 25.41590006 18.75765492 23.83271037 18.625 22.25 C18.55539063 21.36828125 18.48578125 20.4865625 18.4140625 19.578125 C18.00149945 17.00933618 17.28839043 15.24158985 16 13 C15.67 13 15.34 13 15 13 Z " fill="#ABBBCD" transform="translate(32,1)"/>
<path d="M0 0 C0.99 0.33 1.98 0.66 3 1 C2.67 3.64 2.34 6.28 2 9 C2.78375 9.268125 3.5675 9.53625 4.375 9.8125 C7 11 7 11 9 14 C9.4375 16.875 9.4375 16.875 9 20 C6.625 22.875 6.625 22.875 4 25 C3.34 25 2.68 25 2 25 C2 27.31 2 29.62 2 32 C8.85811131 29.17969043 8.85811131 29.17969043 14.125 24.1875 C15.63180649 18.6984192 15.94630313 14.2870719 13.375 9.1875 C10.82701109 5.76783067 8.93481059 4.52026773 5 3 C5.99 2.34 6.98 1.68 8 1 C13.42585811 3.95955897 16.07649412 7.07819539 18 13 C19.00840216 18.30954609 17.86385721 22.55310206 15.27734375 27.23828125 C12.62902151 30.89086025 9.18158492 32.60613836 5 34 C-1.282566 34.53242085 -5.81968006 33.75601912 -11 30 C-14.79003838 25.2381569 -16.38641649 21.32616525 -16.2734375 15.19140625 C-15.786217 11.28668198 -14.39217897 8.11603716 -12 5 C-9.72612938 3.2665997 -7.62087806 2.20963603 -5 1 C-4.34 1.66 -3.68 2.32 -3 3 C-4.6396875 3.804375 -4.6396875 3.804375 -6.3125 4.625 C-10.08976825 6.81183952 -11.61450354 8.76201082 -13 13 C-13.5783715 18.20534352 -13.30795162 21.97631871 -10.48828125 26.45703125 C-7.62776337 29.42266002 -3.83242784 30.68157931 0 32 C0 29.69 0 27.38 0 25 C-0.78375 24.731875 -1.5675 24.46375 -2.375 24.1875 C-5 23 -5 23 -7 20 C-7.4375 17.125 -7.4375 17.125 -7 14 C-4.625 11.125 -4.625 11.125 -2 9 C-1.34 9 -0.68 9 0 9 C-0.185625 7.700625 -0.37125 6.40125 -0.5625 5.0625 C-0.87890625 2.84765625 -0.87890625 2.84765625 -1 1 C-0.67 0.67 -0.34 0.34 0 0 Z " fill="#1880C8" transform="translate(28,15)"/>
<path d="M0 0 C2.375 1.375 2.375 1.375 4 3 C4 3.66 4 4.32 4 5 C4.515625 4.835 5.03125 4.67 5.5625 4.5 C13.21834509 2.92957024 13.21834509 2.92957024 16.9375 5.1640625 C20.38370295 7.9641024 23.10206125 10.51030623 24 15 C23.75 18.25 23.75 18.25 23 21 C22.01 21.495 22.01 21.495 21 22 C20.34444881 24.52733235 20.34444881 24.52733235 20 27 C19.67 27 19.34 27 19 27 C18.01 22.71 17.02 18.42 16 14 C15.34 14.66 14.68 15.32 14 16 C13.38125 15.195625 12.7625 14.39125 12.125 13.5625 C10.25835959 10.96125481 10.25835959 10.96125481 8 10 C8 9.34 8 8.68 8 8 C3.37715491 6.43888216 -1.52549578 6.98658528 -6.33203125 7.12695312 C-8.22159482 7.15664128 -10.1121184 7.0850584 -12 7 C-12.66 6.34 -13.32 5.68 -14 5 C-12.68 5 -11.36 5 -10 5 C-9.566875 4.0409375 -9.566875 4.0409375 -9.125 3.0625 C-7.01861937 -0.79919782 -4.0599299 -0.32479439 0 0 Z M-6 4 C-6 4.33 -6 4.66 -6 5 C-4.02 5 -2.04 5 0 5 C0 4.67 0 4.34 0 4 C-1.98 4 -3.96 4 -6 4 Z " fill="#89A0C5" transform="translate(32,1)"/>
<path d="M0 0 C2.25 -0.375 2.25 -0.375 5 0 C5.598125 0.9075 6.19625 1.815 6.8125 2.75 C9.60071016 6.89248367 12.30392915 8.47463392 17 10 C22.32224336 11.01081366 26.5432763 9.84180154 31.25390625 7.2890625 C33.8589534 5.36587333 35.23450954 2.67867518 37 0 C39.75 -0.375 39.75 -0.375 42 0 C41.67 2.97 41.34 5.94 41 9 C40.34 8.34 39.68 7.68 39 7 C38.67 7.99 38.34 8.98 38 10 C30.78203246 14.70190042 22.31419914 14.95750754 14 14 C10.43537658 13.07383042 7.09959524 12.01912631 4 10 C3.67 9.01 3.34 8.02 3 7 C2.34 7.66 1.68 8.32 1 9 C0.67 6.03 0.34 3.06 0 0 Z " fill="#B4C5DE" transform="translate(8,38)"/>
<path d="M0 0 C2.48728255 2.16285439 3.66266037 3.68180474 4 7 C2.8125 8.81640625 2.8125 8.81640625 1 10.5625 C0.13375 11.43068359 0.13375 11.43068359 -0.75 12.31640625 C-6.08727152 16.31009379 -11.37973659 17.53335995 -17.9375 17.4375 C-18.6382666 17.43282715 -19.3390332 17.4281543 -20.06103516 17.42333984 C-26.68797404 17.23373447 -31.24974804 15.75025196 -36 11 C-36.125 7.875 -36.125 7.875 -36 5 C-35.67 5.99 -35.34 6.98 -35 8 C-34.278125 8.12375 -33.55625 8.2475 -32.8125 8.375 C-30 9 -30 9 -27.75390625 10.01953125 C-21.49553813 12.24768784 -12.92437399 12.26146769 -6.8125 9.5 C-5.884375 9.005 -4.95625 8.51 -4 8 C-3.01 8 -2.02 8 -1 8 C-0.67 5.36 -0.34 2.72 0 0 Z " fill="#8EA9C9" transform="translate(47,40)"/>
<path d="M0 0 C0.99 0.66 1.98 1.32 3 2 C1.3603125 2.804375 1.3603125 2.804375 -0.3125 3.625 C-4.08976825 5.81183952 -5.61450354 7.76201082 -7 12 C-7.5783715 17.20534352 -7.30795162 20.97631871 -4.48828125 25.45703125 C-1.62776337 28.42266002 2.16757216 29.68157931 6 31 C6 29.68 6 28.36 6 27 C6.66 27 7.32 27 8 27 C8 28.32 8 29.64 8 31 C14.85811131 28.17969043 14.85811131 28.17969043 20.125 23.1875 C21.63180649 17.6984192 21.94630313 13.2870719 19.375 8.1875 C16.82701109 4.76783067 14.93481059 3.52026773 11 2 C11.99 1.34 12.98 0.68 14 0 C19.42585811 2.95955897 22.07649412 6.07819539 24 12 C25.00840216 17.30954609 23.86385721 21.55310206 21.27734375 26.23828125 C18.62902151 29.89086025 15.18158492 31.60613836 11 33 C4.717434 33.53242085 0.18031994 32.75601912 -5 29 C-8.79212818 24.23553126 -10.37904396 20.32731879 -10.27734375 14.19140625 C-9.70593554 9.6764766 -7.8609294 5.61583138 -4.3984375 2.609375 C-2.75 1.5 -2.75 1.5 0 0 Z " fill="#306890" transform="translate(22,16)"/>
<path d="M0 0 C3.625 -0.1875 3.625 -0.1875 7 0 C7 0.66 7 1.32 7 2 C8.25296875 1.97679687 9.5059375 1.95359375 10.796875 1.9296875 C12.4479107 1.91092573 14.09895285 1.89272597 15.75 1.875 C16.575 1.85824219 17.4 1.84148438 18.25 1.82421875 C19.04921875 1.81777344 19.8484375 1.81132813 20.671875 1.8046875 C21.4050293 1.79421387 22.13818359 1.78374023 22.89355469 1.77294922 C25.29896076 2.03222456 26.91251494 2.80774075 29 4 C29 4.66 29 5.32 29 6 C29.5775 6.185625 30.155 6.37125 30.75 6.5625 C34.14462336 8.73128715 35.20497313 11.40994626 37 15 C37 15.66 37 16.32 37 17 C36.34 17 35.68 17 35 17 C34.23979006 15.75950239 33.54145151 14.48078877 32.875 13.1875 C30.4960021 9.24575861 28.50885564 7.67071064 24.10546875 6.3984375 C17.54446802 5.1568381 11.94948013 5.85414657 6 9 C3.55789478 11.01917822 3.55789478 11.01917822 2 13 C0 12 0 12 -1.125 9.125 C-2 6 -2 6 -2 3 C-1.34 2.01 -0.68 1.02 0 0 Z " fill="#DDE4EE" transform="translate(11,5)"/>
<path d="M0 0 C0.33 0.99 0.66 1.98 1 3 C0.67 3.66 0.34 4.32 0 5 C1.65 5 3.3 5 5 5 C4.67 5.78375 4.34 6.5675 4 7.375 C2.72589829 11.99361869 2.83076064 16.24249356 3 21 C1.35 21 -0.3 21 -2 21 C-1.67 22.32 -1.34 23.64 -1 25 C-0.34 24.34 0.32 23.68 1 23 C1 26.3 1 29.6 1 33 C-0.65 31.35 -2.3 29.7 -4 28 C-3.34 28 -2.68 28 -2 28 C-2.33 27.34 -2.66 26.68 -3 26 C-3.60463477 16.80257494 -3.05871496 8.75739224 0 0 Z " fill="#A17386" transform="translate(10,17)"/>
<path d="M0 0 C2.9375 0.8125 2.9375 0.8125 4.9375 3.8125 C4.75 6.875 4.75 6.875 3.9375 9.8125 C0.9375 11.8125 0.9375 11.8125 -2.125 11.625 C-5.0625 10.8125 -5.0625 10.8125 -7.0625 7.8125 C-6.875 4.75 -6.875 4.75 -6.0625 1.8125 C-3.0625 -0.1875 -3.0625 -0.1875 0 0 Z " fill="#F88B8A" transform="translate(30.0625,26.1875)"/>
<path d="M0 0 C4.32886416 4.32886416 4.10465264 11.19063878 4.13623047 16.9934082 C4.11993103 19.99640253 4.07119748 22.9978397 4 26 C3.67 26 3.34 26 3 26 C3 24.35 3 22.7 3 21 C1.35 21 -0.3 21 -2 21 C-1.97679687 20.34773438 -1.95359375 19.69546875 -1.9296875 19.0234375 C-1.82416247 13.91301097 -1.98073698 9.79574967 -4 5 C-2.35 5 -0.7 5 1 5 C0.67 3.35 0.34 1.7 0 0 Z " fill="#AD707D" transform="translate(47,17)"/>
<path d="M0 0 C0.66 0.33 1.32 0.66 2 1 C1.01 2.485 1.01 2.485 0 4 C0.391875 4.495 0.78375 4.99 1.1875 5.5 C2.3079947 8.947676 1.17811669 10.71575526 -0.1953125 13.9609375 C-1.23367539 16.59212889 -1.65027179 19.2021743 -2 22 C-2.33 22 -2.66 22 -3 22 C-3.103125 21.236875 -3.20625 20.47375 -3.3125 19.6875 C-3.73498165 16.95493448 -3.73498165 16.95493448 -5.625 15.625 C-7 14 -7 14 -7.0625 10.75 C-5.72771747 6.03900282 -3.39806228 3.41884553 0 0 Z " fill="#8BA2C6" transform="translate(9,6)"/>
<path d="M0 0 C3.625 -0.1875 3.625 -0.1875 7 0 C7 0.66 7 1.32 7 2 C7.66 2 8.32 2 9 2 C8.649375 2.61875 8.29875 3.2375 7.9375 3.875 C7.628125 4.57625 7.31875 5.2775 7 6 C7.33 6.66 7.66 7.32 8 8 C5.03 10.475 5.03 10.475 2 13 C0 12 0 12 -1.125 9.125 C-2 6 -2 6 -2 3 C-1.34 2.01 -0.68 1.02 0 0 Z " fill="#ACBCD3" transform="translate(11,5)"/>
<path d="M0 0 C2.375 1.375 2.375 1.375 4 3 C4 3.66 4 4.32 4 5 C5.32 5.33 6.64 5.66 8 6 C4.03075579 7.29883646 0.00370441 7.18380706 -4.125 7.1875 C-4.85332031 7.19974609 -5.58164062 7.21199219 -6.33203125 7.22460938 C-8.22282978 7.22985188 -10.11315581 7.12233385 -12 7 C-12.66 6.34 -13.32 5.68 -14 5 C-12.68 5 -11.36 5 -10 5 C-9.566875 4.0409375 -9.566875 4.0409375 -9.125 3.0625 C-7.01861937 -0.79919782 -4.0599299 -0.32479439 0 0 Z M-6 4 C-6 4.33 -6 4.66 -6 5 C-4.02 5 -2.04 5 0 5 C0 4.67 0 4.34 0 4 C-1.98 4 -3.96 4 -6 4 Z " fill="#859DBA" transform="translate(32,1)"/>
<path d="M0 0 C5.26506632 2.43003061 8.01280327 4.47258606 10.34765625 9.84375 C11.66642748 14.2028022 11.71567073 18.21082318 10 22.5 C9.67 22.995 9.34 23.49 9 24 C8.34 24 7.68 24 7 24 C7.165 23.505 7.33 23.01 7.5 22.5 C8.53211526 17.33942369 8.78798532 12.91334677 6.375 8.1875 C3.82701109 4.76783067 1.93481059 3.52026773 -2 2 C-1.34 1.34 -0.68 0.68 0 0 Z " fill="#1880C8" transform="translate(35,16)"/>
<path d="M0 0 C0.99 0.66 1.98 1.32 3 2 C1.3603125 2.804375 1.3603125 2.804375 -0.3125 3.625 C-4.08976825 5.81183952 -5.61450354 7.76201082 -7 12 C-7.41703257 16.07590326 -7.30542718 20.08371845 -6 24 C-6.99 23.67 -7.98 23.34 -9 23 C-10.79910157 17.60269529 -10.69468904 12.89951716 -8.375 7.75 C-6.24926524 3.86556382 -3.85038136 2.10020802 0 0 Z " fill="#1880C8" transform="translate(22,16)"/>
<path d="M0 0 C2.64 0 5.28 0 8 0 C8.66 1.32 9.32 2.64 10 4 C7.525 5.485 7.525 5.485 5 7 C3.29115995 5.37660195 1.62553283 3.70680947 0 2 C0 1.34 0 0.68 0 0 Z " fill="#E8EBF0" transform="translate(41,6)"/>
<path d="M0 0 C0.99 0 1.98 0 3 0 C3 3.63 3 7.26 3 11 C1.02 11.99 1.02 11.99 -1 13 C-0.67 8.71 -0.34 4.42 0 0 Z " fill="#B4C5DF" transform="translate(52,22)"/>
<path d="M0 0 C2.31 0 4.62 0 7 0 C7 0.33 7 0.66 7 1 C5.02 1 3.04 1 1 1 C1.66708984 1.68835938 1.66708984 1.68835938 2.34765625 2.390625 C2.91355469 3.00421875 3.47945312 3.6178125 4.0625 4.25 C4.63097656 4.85328125 5.19945312 5.4565625 5.78515625 6.078125 C7 8 7 8 6.68359375 10.234375 C6.45800781 10.81703125 6.23242188 11.3996875 6 12 C5.38125 11.195625 4.7625 10.39125 4.125 9.5625 C2.25835959 6.96125481 2.25835959 6.96125481 0 6 C0 5.34 0 4.68 0 4 C-0.66 4 -1.32 4 -2 4 C-2 3.34 -2 2.68 -2 2 C-1.34 2 -0.68 2 0 2 C0 1.34 0 0.68 0 0 Z " fill="#9BAEC9" transform="translate(40,5)"/>
<path d="M0 0 C0.99 0 1.98 0 3 0 C3.33 4.29 3.66 8.58 4 13 C0 9 0 9 -0.390625 6.640625 C-0.34421875 5.85171875 -0.2978125 5.0628125 -0.25 4.25 C-0.21390625 3.45078125 -0.1778125 2.6515625 -0.140625 1.828125 C-0.09421875 1.22484375 -0.0478125 0.6215625 0 0 Z " fill="#B3C4DF" transform="translate(3,22)"/>
<path d="M0 0 C0.94875 0.04125 1.8975 0.0825 2.875 0.125 C1.72326645 2.59300047 0.82716435 4.17283565 -1.125 6.125 C-3.25 5.75 -3.25 5.75 -5.125 5.125 C-5.125 0.85616396 -4.22482433 0.16899297 0 0 Z " fill="#F6F7F7" transform="translate(14.125,5.875)"/>
<path d="M0 0 C0 0.99 0 1.98 0 3 C-6.625 7 -6.625 7 -10 7 C-10 5.68 -10 4.36 -10 3 C-5.05 1.515 -5.05 1.515 0 0 Z " fill="#B0C2DE" transform="translate(40,40)"/>
<path d="M0 0 C3.63 0.66 7.26 1.32 11 2 C11 3.32 11 4.64 11 6 C6.48986609 5.46939601 3.61621781 3.69113883 0 1 C0 0.67 0 0.34 0 0 Z " fill="#B0C2DE" transform="translate(17,41)"/>
<path d="M0 0 C1.98 0.495 1.98 0.495 4 1 C3.75 3.375 3.75 3.375 3 6 C0.9375 7.3125 0.9375 7.3125 -1 8 C-0.67 5.36 -0.34 2.72 0 0 Z " fill="#B4C3D5" transform="translate(51,38)"/>
<path d="M0 0 C0.99 0 1.98 0 3 0 C3.33 2.31 3.66 4.62 4 7 C2.68 6.67 1.36 6.34 0 6 C-0.38218767 4.34385343 -0.71395102 2.67542976 -1 1 C-0.67 0.67 -0.34 0.34 0 0 Z " fill="#B8C7D8" transform="translate(4,38)"/>
<path d="M0 0 C0.99 0.33 1.98 0.66 3 1 C2.5359375 1.99 2.5359375 1.99 2.0625 3 C0.75039745 6.70476015 0.39735865 10.09263991 0 14 C-0.33 14 -0.66 14 -1 14 C-1.02694851 12.04174127 -1.04637218 10.08337774 -1.0625 8.125 C-1.07410156 7.03445312 -1.08570313 5.94390625 -1.09765625 4.8203125 C-1 2 -1 2 0 0 Z " fill="#F89595" transform="translate(12,22)"/>
<path d="M0 0 C0.99 0 1.98 0 3 0 C4.38226016 2.76452033 4.09525387 5.0461363 4.0625 8.125 C4.05347656 9.22070312 4.04445313 10.31640625 4.03515625 11.4453125 C4.02355469 12.28835937 4.01195312 13.13140625 4 14 C3.67 14 3.34 14 3 14 C2.86722656 13.24074219 2.73445313 12.48148438 2.59765625 11.69921875 C2.42105469 10.70535156 2.24445312 9.71148437 2.0625 8.6875 C1.88847656 7.70136719 1.71445312 6.71523438 1.53515625 5.69921875 C1.04253153 2.91810787 1.04253153 2.91810787 0 0 Z " fill="#F89595" transform="translate(43,22)"/>
<path d="M0 0 C0.33 0.99 0.66 1.98 1 3 C0.67 3.66 0.34 4.32 0 5 C0.66 5 1.32 5 2 5 C2 5.66 2 6.32 2 7 C1.34 7 0.68 7 0 7 C0 8.32 0 9.64 0 11 C-0.66 11 -1.32 11 -2 11 C-1.85892253 9.54119891 -1.71197585 8.08296449 -1.5625 6.625 C-1.48128906 5.81289063 -1.40007813 5.00078125 -1.31640625 4.1640625 C-1 2 -1 2 0 0 Z " fill="#877188" transform="translate(10,17)"/>
</svg>
